<svg width="65" height="33" viewBox="0 0 65 33" fill="none" xmlns="http://www.w3.org/2000/svg">
<path d="M18.9583 13.7917H21.6667C22.385 13.7917 23.0738 14.077 23.5817 14.5849C24.0897 15.0928 24.375 15.7817 24.375 16.5C24.375 17.2183 24.0897 17.9072 23.5817 18.4151C23.0738 18.923 22.385 19.2083 21.6667 19.2083H18.9583V21.9167C18.9583 22.635 18.673 23.3238 18.1651 23.8317C17.6572 24.3397 16.9683 24.625 16.25 24.625C15.5317 24.625 14.8428 24.3397 14.3349 23.8317C13.827 23.3238 13.5417 22.635 13.5417 21.9167V19.2083H10.8333C10.115 19.2083 9.42616 18.923 8.91825 18.4151C8.41034 17.9072 8.125 17.2183 8.125 16.5C8.125 15.7817 8.41034 15.0928 8.91825 14.5849C9.42616 14.077 10.115 13.7917 10.8333 13.7917H13.5417V11.0833C13.5417 10.365 13.827 9.67616 14.3349 9.16825C14.8428 8.66034 15.5317 8.375 16.25 8.375C16.9683 8.375 17.6572 8.66034 18.1651 9.16825C18.673 9.67616 18.9583 10.365 18.9583 11.0833V13.7917ZM16.25 0.25H48.75C51.4606 0.249939 54.1282 0.927944 56.5098 2.22228C58.8915 3.51661 60.9115 5.38615 62.3859 7.66067C63.8604 9.93518 64.7425 12.5424 64.9518 15.2449C65.1612 17.9474 64.6912 20.6594 63.5846 23.1339C62.478 25.6083 60.77 27.7667 58.6162 29.4124C56.4623 31.058 53.931 32.1388 51.2527 32.5562C48.5744 32.9736 45.8342 32.7144 43.2817 31.8022C40.7292 30.89 38.4454 29.3537 36.6383 27.3333H28.3617C26.5546 29.3537 24.2708 30.89 21.7183 31.8022C19.1658 32.7144 16.4256 32.9736 13.7473 32.5562C11.0691 32.1388 8.53772 31.058 6.38385 29.4124C4.22997 27.7667 2.52198 25.6083 1.4154 23.1339C0.308827 20.6594 -0.161183 17.9474 0.0481727 15.2449C0.257529 12.5424 1.1396 9.93518 2.61407 7.66067C4.08853 5.38615 6.10855 3.51661 8.49018 2.22228C10.8718 0.927944 13.5394 0.249939 16.25 0.25V0.25ZM16.25 5.66667C14.4428 5.66666 12.6644 6.11874 11.0766 6.98174C9.48876 7.84475 8.14208 9.09125 7.15916 10.6077C6.17624 12.1242 5.5883 13.8625 5.44889 15.6643C5.30949 17.4661 5.62304 19.2741 6.36099 20.9238C7.09895 22.5734 8.23786 24.0122 9.67401 25.1092C11.1102 26.2062 12.7979 26.9264 14.5836 27.2044C16.3693 27.4824 18.1961 27.3092 19.8977 26.7007C21.5994 26.0922 23.1218 25.0677 24.3263 23.7204L25.9404 21.9167H39.0596L40.6738 23.7204C41.8782 25.0677 43.4006 26.0922 45.1023 26.7007C46.8039 27.3092 48.6307 27.4824 50.4164 27.2044C52.2021 26.9264 53.8898 26.2062 55.326 25.1092C56.7621 24.0122 57.9011 22.5734 58.639 20.9238C59.377 19.2741 59.6905 17.4661 59.5511 15.6643C59.4117 13.8625 58.8238 12.1242 57.8408 10.6077C56.8579 9.09125 55.5112 7.84475 53.9234 6.98174C52.3356 6.11874 50.5572 5.66666 48.75 5.66667H16.25ZM48.75 13.7917C48.0317 13.7917 47.3428 13.5063 46.8349 12.9984C46.327 12.4905 46.0417 11.8016 46.0417 11.0833C46.0417 10.365 46.327 9.67616 46.8349 9.16825C47.3428 8.66034 48.0317 8.375 48.75 8.375C49.4683 8.375 50.1572 8.66034 50.6651 9.16825C51.173 9.67616 51.4583 10.365 51.4583 11.0833C51.4583 11.8016 51.173 12.4905 50.6651 12.9984C50.1572 13.5063 49.4683 13.7917 48.75 13.7917ZM43.3333 19.2083C42.615 19.2083 41.9262 18.923 41.4183 18.4151C40.9103 17.9072 40.625 17.2183 40.625 16.5C40.625 15.7817 40.9103 15.0928 41.4183 14.5849C41.9262 14.077 42.615 13.7917 43.3333 13.7917C44.0516 13.7917 44.7405 14.077 45.2484 14.5849C45.7563 15.0928 46.0417 15.7817 46.0417 16.5C46.0417 17.2183 45.7563 17.9072 45.2484 18.4151C44.7405 18.923 44.0516 19.2083 43.3333 19.2083ZM54.1667 19.2083C53.4484 19.2083 52.7595 18.923 52.2516 18.4151C51.7437 17.9072 51.4583 17.2183 51.4583 16.5C51.4583 15.7817 51.7437 15.0928 52.2516 14.5849C52.7595 14.077 53.4484 13.7917 54.1667 13.7917C54.885 13.7917 55.5738 14.077 56.0818 14.5849C56.5897 15.0928 56.875 15.7817 56.875 16.5C56.875 17.2183 56.5897 17.9072 56.0818 18.4151C55.5738 18.923 54.885 19.2083 54.1667 19.2083ZM48.75 24.625C48.0317 24.625 47.3428 24.3397 46.8349 23.8317C46.327 23.3238 46.0417 22.635 46.0417 21.9167C46.0417 21.1984 46.327 20.5095 46.8349 20.0016C47.3428 19.4937 48.0317 19.2083 48.75 19.2083C49.4683 19.2083 50.1572 19.4937 50.6651 20.0016C51.173 20.5095 51.4583 21.1984 51.4583 21.9167C51.4583 22.635 51.173 23.3238 50.6651 23.8317C50.1572 24.3397 49.4683 24.625 48.75 24.625Z" fill="#16E16E"/>
</svg>
